<svg xmlns="http://www.w3.org/2000/svg" xmlns:xlink="http://www.w3.org/1999/xlink" width="384" zoomAndPan="magnify" viewBox="0 0 288 323.999988" height="432" preserveAspectRatio="xMidYMid meet" version="1.0"><path fill="#000000" d="M 286.601562 36.316406 C 285.226562 46.996094 283.089844 57.535156 280.339844 67.953125 C 279.660156 70.523438 278.785156 72.992188 277.632812 75.382812 C 277.019531 76.644531 276.328125 77.769531 275.144531 78.578125 C 274.589844 78.964844 274.105469 79.464844 273.589844 79.910156 C 272.117188 81.1875 271.480469 82.714844 271.394531 84.757812 C 271.242188 88.171875 270.6875 91.5625 270.1875 94.949219 C 269.3125 100.949219 268.464844 106.964844 267.425781 112.933594 C 265.480469 124.226562 262.898438 135.363281 259.660156 146.347656 C 259.203125 147.917969 258.480469 149.488281 257.578125 150.863281 C 255.8125 153.554688 253.9375 156.207031 251.910156 158.707031 C 247.34375 164.332031 242.703125 169.902344 237.996094 175.414062 C 236.023438 177.722656 233.828125 179.816406 231.746094 182.027344 C 231.21875 182.582031 230.734375 183.191406 230.148438 183.859375 C 231.925781 186.109375 231.023438 188.582031 230.832031 190.96875 C 230.789062 191.582031 230.289062 192.21875 229.871094 192.734375 C 229.023438 193.804688 228.09375 194.832031 227.179688 195.84375 C 219.761719 204.050781 212.332031 212.246094 204.914062 220.46875 C 203.152344 222.425781 201.429688 224.425781 199.625 226.464844 C 199.722656 228.871094 199.734375 231.3125 199.945312 233.742188 C 200.820312 243.703125 201.125 253.671875 201.707031 263.644531 C 202.152344 271.367188 202.789062 279.074219 203.152344 286.792969 C 203.511719 294.515625 203.707031 302.25 203.820312 309.988281 C 203.859375 313.210938 203.5 316.429688 203.332031 319.667969 C 203.289062 320.570312 203.097656 321.429688 202.457031 322.097656 C 202.039062 322.527344 201.457031 322.847656 200.875 322.542969 C 200.570312 322.390625 200.292969 322.109375 200.082031 321.804688 L 52.941406 322.304688 C 52.886719 322.457031 52.816406 322.609375 52.734375 322.765625 C 52.316406 323.472656 51.734375 323.984375 50.84375 323.917969 C 49.972656 323.847656 49.375 323.292969 49.164062 322.484375 C 48.957031 321.640625 48.875 320.75 48.886719 319.875 C 48.941406 315.765625 49.054688 311.652344 49.125 307.542969 C 49.222656 302.058594 49.304688 296.570312 49.386719 291.101562 C 49.386719 290.710938 49.332031 290.324219 49.277344 289.792969 C 48.636719 289.449219 48 289.03125 47.304688 288.699219 C 42.484375 286.40625 38.722656 282.90625 35.777344 278.519531 C 34.097656 276.003906 32.582031 273.367188 30.929688 270.699219 C 30.75 270.65625 30.457031 270.476562 30.195312 270.519531 C 27.863281 270.851562 26.238281 269.671875 24.902344 267.992188 C 24.179688 267.074219 23.554688 266.058594 23.027344 265.019531 C 21.335938 261.699219 20.054688 258.226562 19.265625 254.5625 C 18.277344 249.964844 17.445312 245.355469 17.542969 240.617188 C 17.667969 234.464844 19.25 228.632812 21.515625 222.96875 C 23.527344 217.941406 26.320312 213.34375 29.417969 208.925781 C 35.609375 200.078125 43.109375 192.59375 52.207031 186.71875 C 56.96875 183.636719 60.957031 181.625 66.121094 179.75 C 66.011719 179.5 65.96875 179.152344 65.789062 179 C 61.832031 175.707031 59.207031 171.652344 57.304688 167.179688 C 57.304688 167.179688 57.304688 167.179688 57.304688 167.195312 C 55.84375 166.054688 54.511719 164.75 53.179688 163.390625 C 52.777344 163.679688 52.027344 163.640625 51.457031 163.234375 C 50.832031 162.777344 50.222656 162.265625 49.664062 161.722656 C 43.332031 155.417969 37.457031 148.75 32.722656 141.140625 C 28.097656 133.726562 25.222656 125.699219 24.085938 117.03125 C 23.320312 111.199219 22.960938 105.351562 23.140625 99.476562 C 23.542969 81.144531 28.332031 63.953125 36.75 47.730469 C 38.917969 43.550781 41.359375 39.550781 44.039062 35.691406 C 46 32.871094 48.164062 30.21875 50.664062 27.859375 C 51.441406 27.121094 52.34375 26.527344 53.25 25.957031 C 53.859375 25.582031 54.484375 25.621094 54.902344 25.941406 C 55.789062 24.902344 56.707031 23.871094 57.664062 22.886719 C 57.277344 22.25 56.984375 21.566406 56.816406 20.789062 C 56.679688 20.125 57.359375 19.34375 58.21875 19.402344 C 58.457031 19.539062 58.984375 19.691406 59.261719 20.039062 C 59.457031 20.289062 59.621094 20.554688 59.789062 20.832031 C 60.59375 20.09375 61.414062 19.402344 62.273438 18.75 C 61.941406 18.109375 61.804688 17.375 61.929688 16.527344 C 61.941406 16.441406 62.039062 16.375 62.164062 16.207031 C 62.957031 16.457031 63.582031 16.886719 64.09375 17.441406 C 65.261719 16.664062 66.484375 15.972656 67.773438 15.386719 C 67.59375 14.929688 67.636719 14.429688 67.941406 14 C 68.371094 13.375 68.898438 12.722656 69.550781 12.332031 C 71.234375 11.332031 72.898438 10.261719 74.71875 9.597656 C 83.371094 6.457031 92.21875 3.984375 101.328125 2.542969 C 107.132812 1.609375 112.953125 0.832031 118.8125 0.429688 C 123.101562 0.140625 127.421875 0.207031 131.726562 0.125 C 140.78125 -0.0273438 149.726562 1.070312 158.476562 3.304688 C 169.847656 6.207031 180.515625 10.761719 189.957031 17.902344 C 193.457031 20.539062 194.917969 22.039062 197.097656 25.277344 C 198.429688 25.582031 199.777344 25.261719 201.136719 25.191406 C 203.195312 25.082031 205.25 24.996094 207.289062 24.914062 C 210.039062 24.804688 211.914062 26.402344 212.066406 29.648438 C 212.152344 31.234375 211.777344 32.761719 211.289062 34.261719 C 211.027344 35.09375 210.691406 35.898438 210.316406 36.898438 C 210.902344 37.050781 211.332031 37.175781 211.761719 37.289062 C 213.554688 37.773438 215.402344 38.109375 217.109375 38.789062 C 219.789062 39.871094 220.59375 41.746094 219.566406 44.480469 C 218.59375 47.039062 217.429688 49.539062 215.609375 51.632812 C 215.109375 52.21875 214.625 52.828125 214.125 53.453125 C 217.191406 58.316406 218.484375 63.757812 219.789062 69.175781 C 221.402344 75.855469 222.34375 82.632812 222.207031 89.519531 C 222.191406 90.101562 222.261719 90.6875 222.316406 91.9375 C 222.996094 90.285156 223.496094 89.242188 223.859375 88.160156 C 225.316406 83.796875 226.746094 79.421875 228.191406 75.0625 C 228.46875 74.230469 228.734375 73.382812 229.09375 72.589844 C 229.398438 71.925781 230.023438 71.535156 230.761719 71.605469 C 230.789062 71.605469 230.816406 71.617188 230.84375 71.617188 C 230.886719 71.203125 230.886719 70.800781 230.871094 70.382812 C 230.859375 70.382812 230.859375 70.398438 230.84375 70.398438 C 230.316406 70.660156 229.871094 70.410156 229.511719 70.105469 C 229.066406 69.730469 228.664062 69.300781 228.273438 68.855469 C 227.09375 67.550781 225.96875 66.1875 224.734375 64.925781 C 222.984375 63.132812 222.304688 60.980469 222.21875 58.535156 C 222.09375 55.203125 222.386719 51.882812 222.898438 48.605469 C 223.414062 45.328125 223.957031 42.050781 224.523438 38.773438 C 225.261719 34.550781 226.429688 33.21875 231.175781 32.136719 C 234.691406 31.332031 237.59375 32.96875 238.71875 36.109375 C 238.925781 35.789062 239.148438 35.484375 239.371094 35.164062 C 239.121094 34.011719 239.261719 32.859375 239.539062 31.71875 C 240.21875 28.96875 240.84375 26.191406 241.621094 23.46875 C 242.730469 19.511719 243.941406 15.597656 245.148438 11.664062 C 245.46875 10.636719 245.898438 9.652344 246.257812 8.636719 C 247.691406 4.707031 252.496094 3.429688 255.523438 5 C 256.382812 5.445312 257.273438 5.847656 258.078125 6.222656 C 264.367188 3.222656 267.605469 4.609375 270.1875 8.011719 C 276.242188 7.652344 278.4375 9.527344 280.230469 16.707031 C 280.785156 16.902344 281.410156 17.097656 282.035156 17.332031 C 285.101562 18.5 287.574219 20.566406 287.410156 24.859375 C 287.226562 28.707031 287.089844 32.539062 286.601562 36.316406 Z M 1.40625 158.390625 C 1.820312 158.527344 2.363281 158.390625 2.820312 158.292969 C 5.878906 157.597656 8.917969 156.917969 11.960938 156.179688 C 14.320312 155.613281 16.667969 154.972656 19.152344 154.320312 C 19.25 154.890625 19.390625 155.347656 19.402344 155.820312 C 19.460938 157.582031 19.402344 159.347656 19.515625 161.097656 C 19.597656 162.457031 19.722656 163.847656 20.070312 165.152344 C 20.570312 167.054688 22.277344 167.929688 24.195312 167.386719 C 25.042969 167.152344 25.847656 166.777344 26.640625 166.417969 C 28.582031 165.511719 30.515625 164.570312 32.640625 163.554688 C 33.75 164.722656 34.707031 165.695312 35.636719 166.707031 C 37.167969 168.359375 38.667969 170.039062 40.195312 171.695312 C 41.070312 172.636719 42.070312 173.402344 43.332031 173.777344 C 43.957031 173.972656 44.527344 173.859375 44.972656 173.445312 C 45.441406 173 45.5 172.332031 45.234375 171.804688 C 44.75 170.859375 44.222656 169.902344 43.539062 169.082031 C 42.414062 167.722656 41.179688 166.457031 39.972656 165.179688 C 38.957031 164.109375 38.011719 162.957031 36.875 162.054688 C 34.417969 160.109375 31.707031 159.347656 28.679688 160.777344 C 27.707031 161.234375 26.722656 161.679688 25.738281 162.082031 C 25.222656 162.292969 24.667969 162.375 24.179688 162.515625 C 23.960938 162.207031 23.777344 162.070312 23.75 161.902344 C 23.097656 159.042969 22.460938 156.179688 21.820312 153.320312 C 21.320312 151.097656 20.625 150.570312 18.390625 150.722656 C 17.902344 150.75 17.433594 150.875 16.945312 150.960938 C 12.113281 151.847656 7.460938 153.292969 2.945312 155.195312 C 2.226562 155.5 1.476562 155.765625 0.863281 156.222656 C 0.558594 156.445312 0.320312 157.097656 0.417969 157.472656 C 0.503906 157.863281 1.003906 158.265625 1.40625 158.390625 Z M 20.527344 180.375 C 22.097656 182.664062 23.765625 182.941406 26.015625 181.414062 C 27.054688 180.707031 28 179.832031 28.972656 179.011719 C 29.640625 178.441406 30.265625 177.847656 30.890625 177.289062 C 32.972656 177.652344 34.722656 178.511719 36.554688 179.179688 C 38.304688 179.804688 40.070312 180.375 41.832031 180.929688 C 42.195312 181.039062 42.597656 181.054688 42.984375 181.027344 C 43.527344 181 43.984375 180.136719 43.722656 179.679688 C 43.582031 179.429688 43.445312 179.152344 43.222656 178.972656 C 40.445312 176.625 37.375 174.722656 34.027344 173.289062 C 33.5 173.070312 32.890625 173 32.332031 172.820312 C 30.445312 172.234375 28.863281 172.777344 27.5 174.097656 C 26.652344 174.914062 25.890625 175.804688 25.027344 176.609375 C 24.554688 177.054688 23.988281 177.402344 23.417969 177.832031 C 22.265625 176.5 21.640625 175.066406 21 173.652344 C 20.679688 172.945312 20.363281 172.222656 19.917969 171.582031 C 19.238281 170.597656 18.210938 170.289062 17.085938 170.652344 C 16.710938 170.761719 16.363281 170.945312 16.015625 171.125 C 10.890625 173.625 6.265625 176.902344 1.78125 180.386719 C 1.265625 180.789062 0.820312 181.375 0.558594 181.96875 C 0.390625 182.332031 0.488281 182.957031 0.695312 183.332031 C 1.003906 183.859375 1.601562 184.109375 2.226562 183.859375 C 3.128906 183.5 4.070312 183.152344 4.878906 182.625 C 8.722656 180.125 12.792969 177.941406 16.292969 174.929688 C 16.570312 174.691406 16.945312 174.582031 17.363281 174.359375 C 17.542969 174.847656 17.625 175.234375 17.808594 175.566406 C 18.695312 177.164062 19.488281 178.859375 20.527344 180.375 Z M 279.242188 90.257812 C 279.007812 90.242188 278.605469 90.449219 278.546875 90.632812 C 278.171875 91.9375 277.785156 93.242188 277.578125 94.574219 C 276.410156 102.101562 275.964844 109.710938 275.144531 117.269531 C 274.910156 119.503906 274.703125 121.738281 274.535156 123.976562 C 274.492188 124.601562 274.203125 125.308594 274.9375 125.890625 C 275.144531 125.710938 275.453125 125.574219 275.519531 125.351562 C 275.785156 124.515625 276.046875 123.671875 276.203125 122.808594 C 277.355469 115.976562 278.5625 109.15625 279.574219 102.3125 C 280.019531 99.324219 280.105469 96.285156 280.269531 93.269531 C 280.3125 92.421875 280.074219 91.546875 279.894531 90.714844 C 279.839844 90.519531 279.480469 90.269531 279.242188 90.257812 Z M 287.324219 95.8125 C 287.324219 95.535156 286.910156 95.253906 286.699219 94.992188 C 286.449219 95.253906 286.101562 95.476562 285.976562 95.796875 C 285.796875 96.242188 285.769531 96.742188 285.6875 97.226562 C 285.160156 100.601562 284.601562 103.976562 284.132812 107.367188 C 283.492188 112.003906 282.910156 116.65625 282.339844 121.308594 C 282.296875 121.613281 282.535156 121.960938 282.632812 122.28125 C 283.546875 122.101562 283.601562 121.449219 283.757812 120.933594 C 285.394531 115.296875 286.632812 109.574219 287.269531 103.742188 C 287.546875 101.101562 287.351562 98.4375 287.324219 95.8125 Z M 287.324219 95.8125 " fill-opacity="1" fill-rule="nonzero"/><path fill="#b46133" d="M 216.996094 100.90625 C 216.136719 107.421875 214.789062 113.808594 212.804688 120.085938 C 209.097656 131.753906 202.722656 141.65625 193.515625 149.738281 C 191.292969 151.679688 188.902344 153.375 186.429688 154.945312 C 186.152344 155.125 185.820312 155.5 185.320312 154.917969 C 185.527344 154.179688 185.777344 153.347656 185.988281 152.515625 C 186.429688 150.710938 186.890625 148.902344 187.265625 147.085938 C 187.570312 145.542969 187.640625 143.960938 187.054688 142.445312 C 186.890625 142 186.667969 141.542969 186.363281 141.183594 C 186.292969 141.097656 186.222656 141.03125 186.152344 140.972656 C 186.292969 139.640625 186.417969 138.308594 186.515625 136.972656 C 187.402344 137.308594 188.332031 137.585938 189.265625 137.640625 C 192.957031 137.878906 196.457031 137.015625 199.761719 135.40625 C 203.136719 133.765625 205.679688 131.183594 207.234375 127.808594 C 209.582031 122.738281 209.316406 117.726562 206.234375 112.992188 C 204.554688 110.421875 202.164062 108.726562 199.054688 108.40625 C 194.765625 107.976562 190.902344 109.03125 187.707031 112.085938 C 187.167969 112.601562 186.582031 113.085938 185.777344 113.796875 C 185.695312 112.699219 185.613281 111.933594 185.585938 111.183594 C 185.5 107.074219 185.429688 102.964844 185.375 98.851562 C 185.210938 86.421875 184.695312 74.007812 183.945312 61.59375 C 183.792969 59.148438 183.402344 56.757812 182.472656 54.441406 C 181.945312 53.132812 181.183594 52.34375 179.863281 51.914062 C 174 50.023438 168.195312 47.925781 162.101562 46.871094 C 160.667969 46.621094 159.167969 46.550781 157.726562 46.664062 C 155.601562 46.828125 154.390625 48.382812 154.601562 50.480469 C 154.683594 51.316406 154.933594 52.132812 155.101562 52.925781 C 154.253906 53.355469 153.65625 52.941406 153.03125 52.746094 C 149.851562 51.757812 146.699219 50.703125 143.503906 49.828125 C 136.339844 47.871094 129.160156 45.96875 121.949219 44.136719 C 120.449219 43.761719 118.855469 43.605469 117.3125 43.648438 C 114.132812 43.71875 112.546875 45.816406 113.117188 48.96875 C 113.285156 49.898438 113.519531 50.828125 113.769531 51.996094 C 112.6875 51.925781 111.839844 51.898438 110.992188 51.816406 C 106.035156 51.328125 101.0625 50.757812 96.089844 50.355469 C 93.953125 50.175781 91.785156 50.191406 89.632812 50.328125 C 87.785156 50.441406 85.941406 50.730469 84.132812 51.148438 C 81.316406 51.800781 79.09375 53.59375 79.355469 57.523438 C 79.414062 58.398438 79.496094 59.273438 79.566406 60.160156 C 79.605469 60.621094 79.980469 61.078125 79.46875 61.5625 C 79.121094 61.496094 78.730469 61.46875 78.355469 61.34375 C 73.34375 59.6875 68.332031 58.023438 63.316406 56.371094 C 62.582031 56.121094 61.84375 55.816406 61.082031 55.648438 C 59.277344 55.230469 58.207031 56.078125 58.039062 57.496094 C 57.96875 58.078125 57.761719 58.632812 57.691406 59.21875 C 57.414062 61.648438 57.136719 64.078125 56.902344 66.507812 C 56.386719 71.773438 55.902344 77.019531 55.386719 82.285156 C 54.859375 87.742188 54.277344 93.1875 53.804688 98.644531 C 53.441406 102.9375 53.207031 107.226562 52.929688 111.53125 C 52.875 112.476562 52.84375 113.421875 52.777344 114.738281 C 51.84375 113.78125 51.21875 113.058594 50.511719 112.421875 C 46.457031 108.769531 42.820312 108.78125 38.972656 112.074219 C 34.75 115.683594 32.945312 120.53125 33.207031 125.949219 C 33.542969 132.765625 38.5 138.253906 45.789062 139.390625 C 47.347656 139.640625 48.914062 139.570312 50.402344 138.917969 C 51.082031 138.628906 51.625 138.167969 51.914062 137.683594 C 53.636719 138.628906 53.957031 140.640625 54.039062 142.75 C 54.027344 142.75 54 142.75 53.984375 142.75 C 53.332031 142.847656 53 143.363281 52.957031 144 C 52.902344 144.777344 52.859375 145.570312 52.886719 146.347656 C 53.066406 150.960938 53.636719 155.527344 54.832031 159.984375 C 55.496094 162.472656 56.289062 164.902344 57.277344 167.222656 C 55.816406 166.082031 54.484375 164.777344 53.152344 163.417969 C 53.207031 163.375 53.261719 163.320312 53.304688 163.25 C 53.71875 162.640625 53.34375 162.125 53 161.667969 C 51.316406 159.390625 49.691406 157.054688 47.902344 154.847656 C 44.136719 150.210938 40.457031 145.515625 37.304688 140.433594 C 33.765625 134.738281 31.054688 128.699219 29.613281 122.140625 C 28.832031 118.601562 28.347656 115.03125 28.027344 111.421875 C 27.140625 101.40625 27.695312 91.464844 29.597656 81.617188 C 32.679688 65.925781 38.820312 51.523438 47.761719 38.316406 C 49.625 35.566406 51.664062 32.925781 53.625 30.234375 C 54.136719 29.523438 54.679688 28.832031 55.152344 28.082031 C 55.539062 27.46875 55.621094 26.789062 55.136719 26.164062 C 55.066406 26.082031 55 26.011719 54.914062 25.957031 C 55.804688 24.914062 56.71875 23.886719 57.679688 22.902344 C 58.234375 23.832031 58.996094 24.621094 59.816406 25.371094 C 59.96875 25.511719 60.414062 25.46875 60.621094 25.34375 C 60.832031 25.21875 61.082031 24.859375 61.039062 24.652344 C 60.804688 23.316406 60.441406 22.027344 59.777344 20.859375 C 60.582031 20.125 61.398438 19.429688 62.261719 18.777344 C 62.609375 19.429688 63.148438 19.984375 63.832031 20.457031 C 64.066406 20.625 64.636719 20.609375 64.871094 20.429688 C 65.121094 20.234375 65.136719 19.761719 65.246094 19.402344 C 65.273438 19.316406 65.21875 19.207031 65.179688 19.125 C 64.871094 18.511719 64.511719 17.941406 64.082031 17.472656 C 65.246094 16.691406 66.46875 16 67.761719 15.414062 C 67.832031 15.597656 67.925781 15.777344 68.066406 15.941406 C 68.539062 16.539062 69.175781 16.789062 69.898438 16.539062 C 70.636719 16.289062 71.316406 15.886719 72.039062 15.597656 C 74.121094 14.75 76.191406 13.875 78.300781 13.125 C 80.148438 12.472656 82.050781 11.984375 83.914062 11.386719 C 93.453125 8.304688 103.3125 6.792969 113.230469 5.597656 C 119.855469 4.792969 126.503906 4.777344 133.171875 4.804688 C 140.253906 4.832031 147.210938 5.667969 154.140625 7.136719 C 169.515625 10.402344 183.140625 17.082031 194.667969 27.832031 C 195.695312 28.789062 196.734375 29.179688 198.070312 29.207031 C 200.609375 29.261719 203.152344 29.34375 205.707031 29.457031 C 206.25 29.484375 206.789062 29.691406 207.402344 29.832031 C 207.359375 30.554688 207.347656 31.136719 207.289062 31.707031 C 207.136719 33.261719 206.886719 34.816406 206.820312 36.371094 C 206.722656 38.675781 207.664062 40.011719 209.847656 40.84375 C 211.125 41.328125 212.441406 41.703125 213.734375 42.175781 C 214.25 42.371094 214.707031 42.703125 215.316406 43.050781 C 214.75 44.246094 214.25 45.300781 213.734375 46.34375 C 213.082031 47.664062 212.441406 48.980469 211.75 50.273438 C 210.761719 52.105469 210.691406 54.023438 211.261719 55.96875 C 211.597656 57.09375 212.011719 58.1875 212.414062 59.285156 C 215.082031 66.589844 216.761719 74.132812 217.402344 81.867188 C 217.902344 88.199219 217.832031 94.5625 216.996094 100.90625 Z M 216.996094 100.90625 " fill-opacity="1" fill-rule="nonzero"/><path fill="#fdd2b9" d="M 186.167969 136.863281 C 185.375 136.558594 185.054688 135.683594 185.195312 134.917969 C 185.335938 134.15625 185.863281 133.695312 186.570312 133.570312 C 187.820312 133.363281 189.082031 133.167969 190.347656 133.128906 C 192.527344 133.042969 194.640625 132.613281 196.640625 131.808594 C 201.082031 130.015625 203.804688 126.78125 204.289062 121.933594 C 204.554688 119.324219 203.886719 116.878906 202.152344 114.824219 C 200.886719 113.324219 199.261719 112.519531 197.277344 112.492188 C 194.75 112.460938 192.429688 113.128906 190.390625 114.601562 C 189.515625 115.226562 188.738281 115.976562 187.902344 116.671875 C 187.375 117.113281 186.902344 117.628906 186.347656 118.003906 C 185.015625 118.90625 183.265625 118.503906 182.640625 117.019531 C 182.152344 115.863281 181.808594 114.585938 181.722656 113.351562 C 181.277344 105.824219 180.902344 98.296875 180.570312 90.769531 C 180.183594 82.0625 179.847656 73.367188 179.488281 64.660156 C 179.390625 62.410156 179.320312 60.160156 179.210938 57.910156 C 179.167969 57.148438 179.027344 56.382812 178.917969 55.46875 C 173.320312 53.882812 167.683594 52.757812 162.070312 51.480469 C 161.253906 51.289062 160.363281 51.328125 159.667969 51.289062 C 159.085938 51.898438 159.335938 52.371094 159.433594 52.828125 C 159.640625 53.785156 159.949219 54.71875 160.101562 55.675781 C 160.308594 57.050781 159.613281 57.800781 158.292969 57.632812 C 156.933594 57.46875 155.585938 57.203125 154.238281 56.96875 C 147.671875 55.855469 141.308594 53.898438 134.878906 52.21875 C 130.4375 51.050781 125.976562 49.941406 121.535156 48.773438 C 120.3125 48.453125 119.089844 48.246094 117.785156 48.398438 C 117.339844 49.480469 117.671875 50.425781 117.742188 51.371094 C 117.796875 52.148438 117.921875 52.925781 117.867188 53.703125 C 117.785156 54.925781 117.285156 55.371094 116.019531 55.578125 C 113.007812 56.066406 109.964844 55.953125 106.9375 55.785156 C 103.714844 55.605469 100.496094 55.257812 97.273438 55.078125 C 93.660156 54.871094 90.035156 54.648438 86.441406 55.382812 C 85.96875 55.480469 85.480469 55.566406 85.007812 55.71875 C 84.175781 55.980469 83.71875 56.605469 83.703125 57.46875 C 83.691406 58.148438 83.746094 58.828125 83.828125 59.507812 C 83.96875 60.675781 84.175781 61.828125 84.300781 62.996094 C 84.355469 63.5625 84.355469 64.175781 84.246094 64.730469 C 84.007812 65.910156 83.078125 66.621094 81.914062 66.480469 C 80.84375 66.355469 79.773438 66.148438 78.746094 65.855469 C 73.398438 64.3125 67.957031 63.035156 62.832031 60.785156 C 62.566406 60.675781 62.273438 60.648438 62.023438 60.59375 C 61.304688 60.925781 61.441406 61.578125 61.398438 62.132812 C 61.148438 65.9375 60.84375 69.742188 60.691406 73.5625 C 60.414062 80.019531 59.707031 86.4375 58.984375 92.851562 C 58.46875 97.421875 58.09375 102.003906 57.609375 106.574219 C 57.289062 109.492188 56.871094 112.394531 56.484375 115.308594 C 56.414062 115.796875 56.289062 116.269531 56.121094 116.726562 C 55.652344 118.03125 54.804688 118.878906 53.304688 118.863281 C 52.71875 118.863281 52.136719 118.90625 51.386719 118.949219 C 50.277344 117.976562 49.097656 116.976562 47.929688 115.921875 C 45.472656 113.699219 43.761719 113.296875 40.984375 116.449219 C 38.761719 118.976562 37.761719 122.058594 37.804688 125.378906 C 37.875 130.195312 41.707031 134.195312 46.652344 134.792969 C 47.722656 134.917969 48.804688 134.878906 49.875 134.972656 C 50.886719 135.058594 51.832031 135.378906 52.152344 136.488281 C 52.261719 136.863281 52.179688 137.28125 51.941406 137.667969 C 53.664062 138.613281 53.984375 140.625 54.066406 142.738281 C 54.707031 142.667969 55.152344 143.125 55.375 143.667969 C 55.707031 144.472656 56.011719 145.308594 56.191406 146.167969 C 56.707031 148.75 57.109375 151.363281 57.636719 153.957031 C 58.511719 158.292969 59.914062 162.457031 61.789062 166.457031 C 63.566406 170.25 66.164062 173.375 69.425781 176 C 73.050781 178.914062 77.023438 181.164062 81.382812 182.761719 C 84.132812 183.761719 86.898438 184.707031 89.855469 185.746094 C 90.121094 184.734375 90.398438 183.914062 90.535156 183.066406 C 91.300781 178.304688 93.632812 174.457031 97.355469 171.445312 C 98.339844 170.636719 99.355469 169.859375 100.4375 169.195312 C 101.507812 168.542969 102.6875 168.027344 104.175781 167.277344 C 104.339844 166.292969 104.617188 165.234375 104.6875 164.179688 C 104.800781 162.652344 105.550781 161.609375 106.867188 160.945312 C 107.5625 160.597656 108.300781 160.320312 109.035156 160.070312 C 113.019531 158.722656 117.132812 158.804688 121.242188 159.140625 C 122.507812 159.234375 123.769531 159.417969 125.035156 159.609375 C 125.714844 159.707031 126.394531 159.832031 127.035156 160.054688 C 128.867188 160.722656 130.3125 161.792969 130.742188 163.847656 C 131.117188 165.652344 131.519531 167.457031 131.949219 169.457031 C 132.503906 169.320312 133.03125 169.152344 133.574219 169.054688 C 138.726562 168.136719 142.503906 169.609375 145.046875 174.941406 C 146.421875 177.832031 146.78125 180.941406 146.546875 184.125 C 146.476562 184.996094 146.296875 185.886719 146.335938 186.746094 C 146.367188 187.261719 146.726562 187.746094 146.949219 188.277344 C 148.226562 188.082031 149.144531 187.527344 150.074219 187.011719 C 156.613281 183.386719 162.738281 179.179688 168.058594 173.914062 C 175.640625 166.417969 180.613281 157.472656 182.625 146.960938 C 182.792969 146.097656 182.777344 145.210938 182.945312 144.335938 C 183.125 143.375 183.304688 142.40625 183.679688 141.515625 C 184.070312 140.558594 185.390625 140.363281 186.179688 141 C 186.320312 139.667969 186.445312 138.335938 186.542969 137.003906 C 186.390625 136.945312 186.277344 136.90625 186.167969 136.863281 Z M 193.929688 121.835938 C 195.082031 121.851562 196.082031 122.933594 196.109375 124.183594 C 196.125 125.476562 194.972656 126.585938 193.640625 126.558594 C 192.417969 126.53125 191.332031 125.558594 191.25 124.390625 C 191.152344 123.140625 192.554688 121.808594 193.929688 121.835938 Z M 46.375 129.90625 C 45.195312 129.640625 44.289062 128.640625 44.179688 127.476562 C 44.039062 126.140625 44.761719 124.960938 46.011719 124.476562 C 46.636719 124.238281 47.539062 124.449219 47.816406 125.042969 C 48.25 126.003906 48.554688 127.03125 48.816406 127.726562 C 48.875 129.167969 47.554688 130.167969 46.375 129.90625 Z M 80.941406 80.839844 C 81.691406 80.992188 82.453125 81.296875 83.078125 81.730469 C 87.773438 84.921875 92.328125 88.296875 96.535156 92.101562 C 97.246094 92.742188 97.773438 93.601562 98.339844 94.394531 C 98.550781 94.699219 98.621094 95.101562 98.660156 95.226562 C 98.746094 96.253906 98.121094 97.128906 97.355469 97.144531 C 96.703125 97.160156 95.980469 97.074219 95.382812 96.8125 C 94.6875 96.492188 94.050781 95.976562 93.496094 95.449219 C 90.09375 92.1875 86.382812 89.324219 82.496094 86.6875 C 81.691406 86.132812 80.882812 85.5625 80.175781 84.910156 C 79.691406 84.464844 79.246094 83.882812 78.980469 83.285156 C 78.425781 81.980469 79.566406 80.5625 80.941406 80.839844 Z M 98.035156 120.476562 C 97.214844 121.128906 96.230469 121.65625 95.246094 122.046875 C 91.621094 123.515625 87.855469 124.558594 84.007812 125.253906 C 83.050781 125.433594 82.066406 125.503906 81.148438 125.03125 C 80.039062 124.460938 79.773438 123.15625 80.730469 122.390625 C 81.398438 121.863281 82.21875 121.449219 83.023438 121.183594 C 85.425781 120.378906 87.871094 119.699219 90.285156 118.921875 C 91.496094 118.546875 92.660156 118.085938 94.078125 117.585938 C 93.5625 117.113281 93.273438 116.726562 92.882812 116.519531 C 90.828125 115.378906 88.773438 114.253906 86.691406 113.199219 C 85.21875 112.449219 83.664062 111.824219 82.175781 111.101562 C 81.566406 110.808594 80.980469 110.421875 80.453125 109.992188 C 79.886719 109.519531 79.730469 108.851562 79.925781 108.128906 C 80.105469 107.449219 80.925781 106.796875 81.675781 106.808594 C 82.148438 106.824219 82.648438 106.921875 83.09375 107.089844 C 87.21875 108.617188 91.328125 110.183594 95.035156 112.601562 C 96.257812 113.394531 97.4375 114.308594 98.425781 115.363281 C 99.996094 117.003906 99.800781 119.074219 98.035156 120.476562 Z M 122.242188 93.714844 C 123.660156 94.976562 123.796875 96.351562 124.074219 97.671875 C 124.339844 98.9375 124.324219 100.1875 123.867188 101.394531 C 123.785156 101.628906 123.449219 101.9375 123.257812 101.921875 C 122.910156 101.90625 122.507812 101.742188 122.257812 101.492188 C 121.992188 101.242188 121.851562 100.839844 121.714844 100.476562 C 120.894531 98.296875 121.1875 96.171875 122.242188 93.714844 Z M 113.257812 94.742188 C 113.296875 94.5625 113.382812 94.351562 113.519531 94.226562 C 113.714844 94.035156 113.992188 93.769531 114.203125 93.796875 C 114.535156 93.851562 115.019531 94.046875 115.117188 94.296875 C 115.492188 95.285156 115.769531 96.3125 116.007812 97.339844 C 116.132812 97.894531 116.132812 98.492188 116.230469 99.503906 C 116.074219 100.226562 115.894531 101.367188 115.578125 102.476562 C 115.394531 103.128906 114.285156 103.1875 113.882812 102.628906 C 113.769531 102.476562 113.644531 102.324219 113.578125 102.144531 C 112.632812 99.714844 112.632812 97.242188 113.257812 94.742188 Z M 125.5625 152.363281 C 125.269531 152.417969 124.976562 152.460938 124.6875 152.460938 C 124.101562 152.460938 123.492188 152.5 122.921875 152.390625 C 119.296875 151.625 115.730469 151.890625 112.160156 152.738281 C 111.578125 152.875 110.964844 152.863281 110.6875 151.988281 C 111.230469 151.652344 111.769531 151.210938 112.382812 150.988281 C 116.132812 149.652344 120.007812 149.265625 123.949219 149.652344 C 124.617188 149.722656 125.324219 149.902344 125.894531 150.238281 C 126.226562 150.429688 126.464844 151.015625 126.492188 151.429688 C 126.535156 151.929688 126.074219 152.25 125.5625 152.363281 Z M 155.710938 109.046875 C 154.863281 109.683594 153.933594 110.253906 152.988281 110.753906 C 150.585938 112.046875 148.144531 113.28125 145.726562 114.546875 C 145.226562 114.808594 144.769531 115.171875 143.960938 115.699219 C 146.644531 116.878906 148.878906 117.835938 151.101562 118.851562 C 151.988281 119.253906 152.863281 119.699219 153.65625 120.253906 C 154.503906 120.835938 154.753906 121.824219 154.40625 122.574219 C 154.03125 123.363281 153.335938 123.753906 152.515625 123.710938 C 151.753906 123.683594 150.921875 123.628906 150.238281 123.324219 C 147.03125 121.890625 143.835938 120.421875 140.699219 118.863281 C 138.949219 117.988281 138.476562 116.960938 138.839844 115.308594 C 138.964844 114.769531 139.253906 114.210938 139.601562 113.769531 C 139.964844 113.324219 140.464844 112.960938 140.933594 112.644531 C 144.421875 110.28125 148.101562 108.28125 151.863281 106.421875 C 152.558594 106.074219 153.308594 105.839844 154.074219 105.65625 C 154.976562 105.449219 155.960938 105.949219 156.308594 106.671875 C 156.65625 107.433594 156.488281 108.464844 155.710938 109.046875 Z M 161.308594 77.089844 C 160.808594 77.675781 160.210938 78.203125 159.601562 78.6875 C 157.988281 79.964844 156.351562 81.1875 154.726562 82.453125 C 150.488281 85.757812 146.269531 89.089844 142.019531 92.382812 C 140.78125 93.339844 139.503906 94.242188 138.214844 95.117188 C 137.742188 95.421875 137.15625 95.5625 136.878906 95.671875 C 135.90625 95.660156 135.269531 94.824219 135.503906 94.226562 C 135.644531 93.867188 135.796875 93.476562 136.03125 93.199219 C 137.101562 91.9375 138.089844 90.546875 139.339844 89.476562 C 143.671875 85.824219 148.074219 82.257812 152.503906 78.730469 C 154.03125 77.519531 155.738281 76.550781 157.390625 75.507812 C 158.042969 75.089844 158.765625 74.757812 159.488281 74.480469 C 160.183594 74.214844 160.851562 74.382812 161.363281 74.9375 C 161.863281 75.425781 161.851562 76.464844 161.308594 77.089844 Z M 280.410156 20.734375 C 279.785156 20.46875 279.160156 20.234375 278.492188 19.957031 C 277.757812 20.71875 278.007812 21.664062 277.824219 22.46875 C 277.632812 23.332031 277.507812 24.207031 277.410156 25.082031 C 276.992188 29.011719 275.953125 32.761719 274.382812 36.371094 C 274.1875 36.800781 273.855469 37.164062 273.5625 37.550781 C 273.519531 37.609375 273.394531 37.59375 273.285156 37.609375 C 272.589844 37.289062 272.742188 36.664062 272.839844 36.121094 C 273.453125 32.554688 274.0625 28.984375 274.730469 25.429688 C 275.132812 23.21875 275.757812 21.039062 276.035156 18.816406 C 276.296875 16.75 275.730469 14.75 274.464844 13.039062 C 274.132812 12.597656 273.546875 12.320312 273.035156 12.070312 C 272.605469 11.859375 272.089844 11.734375 271.617188 11.722656 C 269.382812 11.695312 267.492188 10.984375 265.703125 9.554688 C 264.132812 8.289062 261.3125 8.539062 259.703125 9.972656 C 258.621094 10.945312 257.746094 10.929688 256.550781 10.304688 C 255.523438 9.761719 254.410156 9.320312 253.273438 9.070312 C 251.605469 8.695312 250.648438 9.195312 249.871094 10.664062 C 249.371094 11.609375 248.925781 12.609375 248.578125 13.625 C 246.816406 18.707031 245.078125 23.789062 243.355469 28.886719 C 242.757812 30.648438 242.21875 32.429688 241.605469 34.175781 C 241.414062 34.71875 241.148438 35.261719 240.828125 35.734375 C 240.691406 35.925781 240.300781 36.082031 240.066406 36.050781 C 239.828125 36.011719 239.496094 35.746094 239.441406 35.523438 C 239.414062 35.414062 239.386719 35.316406 239.355469 35.207031 C 239.136719 35.523438 238.914062 35.832031 238.703125 36.148438 C 238.871094 36.59375 238.996094 37.082031 239.078125 37.59375 C 239.425781 39.621094 239.539062 41.703125 238.480469 43.605469 C 238.164062 44.191406 237.691406 44.71875 237.175781 45.136719 C 236.550781 45.664062 235.46875 45.246094 235.300781 44.453125 C 235.164062 43.800781 235.148438 43.105469 235.121094 42.425781 C 235.050781 41.066406 235.121094 39.675781 234.941406 38.328125 C 234.691406 36.523438 233.84375 35.832031 232.011719 35.648438 C 231.523438 35.609375 231.023438 35.609375 230.550781 35.675781 C 229.886719 35.773438 229.234375 35.957031 228.523438 36.109375 C 228.289062 38.773438 228.082031 41.109375 227.871094 43.441406 C 227.484375 47.71875 227.09375 52.007812 226.71875 56.285156 C 226.679688 56.773438 226.691406 57.257812 226.664062 57.757812 C 226.539062 59.898438 227.109375 61.785156 228.496094 63.464844 C 229.371094 64.523438 230.148438 65.660156 230.859375 66.828125 C 231.246094 67.480469 231.46875 68.257812 231.621094 68.992188 C 231.746094 69.589844 231.457031 70.117188 230.871094 70.410156 C 230.886719 70.828125 230.871094 71.230469 230.84375 71.648438 C 231.523438 71.742188 232.066406 72.1875 232.21875 72.898438 C 232.371094 73.5625 232.484375 74.242188 232.441406 74.925781 C 232.359375 76.589844 232.148438 78.230469 231.609375 79.828125 C 229.273438 86.785156 226.691406 93.660156 223.554688 100.296875 C 223.261719 100.921875 223.039062 101.601562 222.621094 102.128906 C 221.164062 103.976562 220.804688 106.183594 220.429688 108.40625 C 219.152344 115.976562 216.875 123.238281 213.789062 130.253906 C 210.304688 138.15625 205.195312 144.917969 199.027344 150.917969 C 198.125 151.792969 197.207031 152.625 196.265625 153.445312 C 196.777344 154.097656 197.261719 154.75 197.761719 155.402344 C 198.195312 154.765625 199.042969 154.488281 199.792969 154.890625 C 200.292969 155.167969 200.761719 155.554688 201.167969 155.957031 C 205.636719 160.347656 210.234375 164.609375 214.316406 169.375 C 217.707031 173.320312 221.484375 176.886719 225.496094 180.191406 C 226.011719 180.609375 226.59375 180.957031 227.207031 181.402344 C 227.609375 180.96875 227.96875 180.636719 228.273438 180.277344 C 233.996094 173.320312 239.730469 166.375 245.425781 159.402344 C 247.59375 156.75 249.71875 154.054688 251.800781 151.335938 C 253.71875 148.820312 255.007812 146.027344 255.871094 142.945312 C 259.078125 131.445312 261.703125 119.808594 263.742188 108.046875 C 265.0625 100.4375 266.214844 92.796875 267.453125 85.160156 C 267.675781 83.8125 267.925781 82.464844 268.105469 81.105469 C 268.300781 79.660156 268.855469 78.394531 270.203125 77.769531 C 272.953125 76.480469 273.882812 74.144531 274.714844 71.398438 C 277.910156 60.785156 280.230469 49.996094 281.964844 39.066406 C 282.589844 35.109375 282.824219 31.09375 283.214844 27.09375 C 283.269531 26.511719 283.214844 25.914062 283.257812 25.332031 C 283.421875 23.121094 282.464844 21.582031 280.410156 20.734375 Z M 262.4375 34.332031 C 263.203125 30.511719 263.953125 26.679688 264.730469 22.871094 C 265.242188 20.386719 265.773438 17.914062 266.367188 15.457031 C 266.535156 14.75 266.589844 13.902344 267.757812 13.386719 C 268.394531 15.191406 268.117188 16.847656 267.8125 18.441406 C 266.703125 24.234375 265.882812 30.121094 263.230469 35.484375 C 262.398438 35.289062 262.328125 34.871094 262.4375 34.332031 Z M 254.050781 29.054688 C 254.9375 24.371094 255.84375 19.691406 256.757812 15.011719 C 256.871094 14.457031 256.84375 13.804688 257.5625 13.597656 C 258.035156 13.457031 258.453125 14.097656 258.550781 15.097656 C 258.871094 18.261719 258.121094 21.304688 257.230469 24.289062 C 256.703125 26.054688 255.84375 27.707031 255.121094 29.414062 C 255.007812 29.664062 254.84375 29.898438 254.703125 30.148438 C 254.535156 30.066406 254.355469 29.96875 254.1875 29.886719 C 254.132812 29.609375 253.996094 29.316406 254.050781 29.054688 Z M 253.632812 60.480469 C 253.4375 60.785156 253.078125 61.105469 252.757812 61.175781 C 252.46875 61.230469 251.980469 61.035156 251.800781 60.785156 C 251.59375 60.507812 251.59375 60.050781 251.550781 59.675781 C 251.382812 58.410156 251.257812 57.148438 251.066406 55.898438 C 250.46875 52.078125 248.257812 49.539062 244.757812 48.039062 C 244.132812 47.773438 243.46875 47.59375 242.882812 47.246094 C 242.59375 47.078125 242.273438 46.578125 242.328125 46.316406 C 242.425781 45.898438 242.773438 45.300781 243.105469 45.230469 C 243.941406 45.078125 244.855469 45.039062 245.691406 45.21875 C 248.078125 45.761719 249.910156 47.246094 251.453125 49.066406 C 253.328125 51.289062 254.453125 53.855469 254.578125 56.816406 C 254.5625 58.132812 254.34375 59.382812 253.632812 60.480469 Z M 274.285156 44.289062 C 274.078125 44.539062 273.660156 44.871094 273.410156 44.816406 C 270.855469 44.203125 268.285156 43.578125 265.773438 42.828125 C 262.773438 41.941406 259.8125 40.925781 256.703125 40.496094 C 254.480469 40.175781 252.246094 39.953125 250.023438 39.691406 C 249.441406 39.621094 248.855469 39.578125 248.300781 39.414062 C 247.691406 39.21875 247.371094 38.703125 247.34375 38.078125 C 247.316406 37.441406 247.59375 36.871094 248.191406 36.675781 C 249.105469 36.398438 250.066406 36.246094 250.605469 36.136719 C 254.371094 36.386719 257.648438 36.996094 260.828125 37.953125 C 264.953125 39.191406 268.953125 40.746094 272.742188 42.800781 C 273.171875 43.039062 273.605469 43.261719 273.980469 43.578125 C 274.171875 43.730469 274.367188 44.191406 274.285156 44.289062 Z M 110.605469 252.671875 C 110.0625 253.367188 109.550781 254.0625 108.980469 254.714844 C 104.535156 259.949219 99.648438 264.769531 94.507812 269.308594 C 89.660156 273.601562 84.539062 277.53125 78.980469 280.878906 C 75.273438 283.101562 71.371094 284.921875 67.21875 286.113281 C 62.914062 287.351562 58.554688 287.640625 54.179688 286.433594 C 48.097656 284.738281 43.222656 281.296875 39.707031 276.046875 C 37.75 273.117188 35.984375 270.058594 34.152344 267.046875 C 33.359375 265.742188 32.597656 264.40625 31.847656 263.128906 C 32.179688 262.753906 32.347656 262.519531 32.570312 262.324219 C 39.042969 256.628906 45.707031 251.171875 53.316406 247.007812 C 54.609375 246.3125 55.832031 245.492188 57.054688 244.671875 C 57.527344 244.355469 57.957031 243.910156 58.289062 243.453125 C 58.652344 242.9375 58.652344 242.339844 58.402344 241.882812 C 59.582031 241.339844 60.871094 240.953125 62.121094 240.492188 C 61.914062 241.257812 62.429688 242.117188 63.304688 242.203125 C 63.773438 242.242188 64.316406 242.242188 64.734375 242.0625 C 65.539062 241.714844 66.316406 241.296875 67.039062 240.796875 C 72.21875 237.257812 77.289062 233.578125 82.105469 229.578125 C 82.46875 229.273438 82.855469 229.023438 83.316406 228.6875 C 83.746094 229.089844 84.105469 229.410156 84.453125 229.742188 C 85.773438 231.050781 87.066406 232.382812 88.425781 233.648438 C 89.035156 234.214844 89.316406 234.882812 89.535156 235.644531 C 90.84375 240.007812 93.925781 242.4375 98.214844 243.519531 C 99.160156 243.757812 100.121094 243.953125 101.007812 244.160156 C 103.953125 247.296875 107.8125 249.269531 110.605469 252.671875 Z M 146.046875 219.578125 C 144.933594 223.800781 142.601562 227.257812 139.269531 229.992188 C 136.171875 232.535156 132.894531 234.867188 129.6875 237.285156 C 128.753906 237.992188 127.8125 238.703125 126.894531 239.4375 C 126.519531 239.742188 126.160156 240.105469 125.894531 240.492188 C 125.546875 240.992188 125.421875 241.546875 125.726562 242.144531 C 125.910156 242.507812 126.171875 242.730469 126.492188 242.855469 C 126.035156 243.285156 125.5625 243.703125 125.089844 244.105469 C 124.976562 243.828125 124.824219 243.546875 124.632812 243.269531 C 124.019531 242.394531 123.351562 241.535156 122.660156 240.714844 C 120.257812 237.894531 117.785156 235.132812 114.867188 233.328125 C 114.578125 231.257812 114.394531 229.507812 114.0625 227.800781 C 113.8125 226.523438 113.0625 225.464844 112.019531 224.660156 C 111.882812 224.5625 111.742188 224.480469 111.605469 224.425781 C 111.535156 224.328125 111.453125 224.230469 111.367188 224.148438 C 110.605469 223.507812 109.675781 222.550781 108.589844 222.230469 C 108.5625 222.105469 108.507812 221.996094 108.453125 221.898438 C 108.117188 221.355469 107.519531 220.898438 106.925781 220.59375 C 105.410156 219.828125 103.785156 219.507812 102.089844 219.660156 C 101.3125 219.730469 100.550781 219.871094 99.675781 219.996094 C 98.203125 217.246094 95.6875 215.757812 92.996094 214.523438 C 91.882812 214.007812 90.746094 213.757812 89.648438 213.996094 C 90.050781 212.425781 90.316406 210.816406 90.480469 209.175781 C 90.535156 209.203125 90.59375 209.230469 90.648438 209.257812 C 91.105469 209.46875 91.8125 208.996094 92.050781 208.453125 C 92.160156 208.191406 92.273438 207.914062 92.3125 207.621094 C 92.496094 206.566406 92.703125 205.496094 92.800781 204.425781 C 93.09375 201.203125 93.285156 197.984375 93.605469 194.773438 C 93.925781 191.566406 94.300781 188.359375 94.746094 185.152344 C 95.371094 180.566406 97.496094 176.832031 101.3125 174.136719 C 101.800781 173.804688 102.214844 173.386719 102.714844 173.070312 C 103.078125 172.832031 103.425781 172.359375 104.035156 172.820312 C 104.0625 173.152344 104.132812 173.539062 104.117188 173.929688 C 104.007812 177.566406 104.660156 181.136719 105.117188 184.734375 C 105.367188 186.621094 106.257812 187.777344 107.855469 188.582031 C 108.910156 189.121094 110.019531 189.457031 111.230469 189.496094 C 116.644531 189.679688 121.6875 188.261719 126.503906 185.914062 C 127.769531 185.304688 128.742188 184.359375 129.449219 183.125 C 130.226562 181.761719 131.117188 180.457031 131.769531 179.039062 C 132.421875 177.636719 132.894531 176.136719 133.394531 174.664062 C 133.574219 174.152344 133.617188 173.582031 133.742188 173.011719 C 134.476562 172.957031 135.0625 172.929688 135.644531 172.886719 C 137.617188 172.75 139.019531 173.707031 140.089844 175.25 C 140.476562 175.804688 140.839844 176.414062 141.074219 177.039062 C 142.074219 179.734375 142.644531 182.484375 141.933594 185.371094 C 141.601562 186.707031 141.308594 188.039062 141.128906 189.398438 C 140.878906 191.304688 141.492188 191.832031 143.421875 191.582031 C 143.671875 191.554688 143.949219 191.59375 144.269531 191.609375 C 144.671875 192.816406 144.601562 193.984375 144.335938 195.136719 C 143.976562 196.664062 143.574219 198.164062 143.210938 199.691406 C 143.03125 200.453125 142.851562 201.21875 142.796875 201.996094 C 142.710938 203.261719 143.503906 203.773438 144.65625 203.234375 C 144.976562 203.078125 145.253906 202.828125 145.710938 202.523438 C 145.960938 203.246094 146.210938 203.773438 146.324219 204.328125 C 146.628906 205.84375 146.117188 207.230469 145.503906 208.578125 C 145.019531 209.648438 144.449219 210.675781 143.894531 211.71875 C 143.601562 212.257812 143.40625 212.828125 143.796875 213.371094 C 144.183594 213.898438 144.769531 213.925781 145.394531 213.871094 C 145.53125 213.855469 145.699219 214.050781 145.894531 214.175781 C 146.613281 215.910156 146.546875 217.730469 146.046875 219.578125 Z M 146.046875 219.578125 " fill-opacity="1" fill-rule="nonzero"/><path fill="#fff101" d="M 62.136719 240.492188 C 60.886719 240.953125 59.59375 241.355469 58.414062 241.882812 C 58.179688 241.453125 57.734375 241.117188 57.152344 241.078125 C 56.582031 241.035156 55.941406 241.035156 55.414062 241.214844 C 54.125 241.660156 52.816406 242.089844 51.625 242.742188 C 44.261719 246.757812 37.761719 251.910156 31.832031 257.8125 C 31 258.628906 30.277344 259.574219 29.582031 260.519531 C 28.988281 261.324219 28.792969 262.199219 29.113281 263.269531 C 29.5 264.546875 29.582031 265.90625 29.863281 267.601562 C 28.277344 266.519531 27.679688 265.1875 27.082031 263.867188 C 25.027344 259.285156 23.738281 254.476562 22.929688 249.535156 C 22.429688 246.4375 22.085938 243.328125 22.195312 240.1875 C 22.417969 233.925781 24.097656 227.996094 26.832031 222.425781 C 34.542969 206.746094 46 194.648438 61.609375 186.621094 C 64.648438 185.054688 67.898438 183.984375 71.050781 182.957031 C 73.34375 184.152344 75.484375 185.277344 77.675781 186.429688 C 77.539062 187.246094 77.480469 187.929688 77.289062 188.566406 C 76.328125 191.648438 75.300781 194.707031 74.359375 197.789062 C 73.191406 201.621094 72.066406 205.46875 70.96875 209.328125 C 70.734375 210.164062 70.609375 211.066406 70.664062 211.925781 C 70.773438 213.773438 72.148438 214.996094 74.011719 214.882812 C 74.871094 214.828125 75.730469 214.566406 76.566406 214.289062 C 80.636719 212.941406 83.371094 209.800781 86.398438 207.039062 C 86.46875 206.96875 86.535156 206.871094 86.550781 206.789062 C 86.578125 206.46875 86.675781 206.09375 86.605469 205.828125 C 87.523438 205.261719 88.425781 204.636719 89.257812 203.96875 C 89.257812 204.566406 89.257812 205.175781 89.257812 205.773438 C 89.257812 206.648438 89.34375 207.539062 89.578125 208.371094 C 89.675781 208.691406 90.078125 208.996094 90.453125 209.191406 C 90.285156 210.828125 90.035156 212.441406 89.621094 214.007812 C 89.050781 214.132812 88.496094 214.371094 87.953125 214.773438 C 85.59375 216.550781 83.496094 218.59375 81.773438 221.007812 C 81.246094 221.746094 80.953125 222.550781 81.105469 223.496094 C 81.175781 223.953125 81.203125 224.410156 81.230469 224.773438 C 78.871094 226.675781 76.664062 228.453125 74.441406 230.214844 C 70.984375 232.953125 67.511719 235.660156 64.066406 238.394531 C 63.457031 238.882812 62.859375 239.394531 62.359375 239.992188 C 62.273438 240.144531 62.191406 240.3125 62.136719 240.492188 Z M 108.605469 222.230469 C 108.714844 222.648438 108.703125 223.160156 108.550781 223.535156 C 108.4375 223.84375 107.769531 224.09375 107.339844 224.105469 C 106.367188 224.132812 105.398438 223.996094 104.410156 223.925781 C 100.023438 223.632812 96.910156 225.714844 94.675781 229.285156 C 93.050781 231.882812 93.371094 236.5625 97.550781 238.464844 C 100.605469 239.855469 103.632812 239.882812 106.535156 238.105469 C 108.6875 236.800781 109.925781 234.839844 109.953125 232.300781 C 109.980469 230.839844 109.730469 229.382812 109.632812 227.925781 C 109.578125 227.148438 109.453125 226.355469 109.550781 225.605469 C 109.6875 224.5625 110.714844 224.078125 111.605469 224.4375 C 111.535156 224.34375 111.453125 224.246094 111.367188 224.160156 C 110.617188 223.523438 109.6875 222.550781 108.605469 222.230469 Z M 196.277344 227.382812 C 195.890625 239.535156 196.332031 251.660156 197.082031 263.78125 C 197.277344 267.003906 197.484375 270.226562 197.695312 273.449219 C 198.195312 281.265625 198.804688 289.074219 199.167969 296.890625 C 199.5 304.03125 199.542969 311.179688 199.707031 318.320312 C 199.722656 319 199.707031 319.695312 199.734375 320.375 C 199.75 320.765625 199.722656 321.207031 199.902344 321.527344 C 199.957031 321.625 200.011719 321.707031 200.082031 321.804688 L 52.941406 322.304688 C 53.011719 322.097656 53.082031 321.875 53.109375 321.652344 C 53.277344 320.597656 53.484375 319.527344 53.5 318.457031 C 53.539062 309.945312 53.957031 301.417969 53.511719 292.90625 C 53.484375 292.351562 53.625 291.792969 53.679688 291.265625 C 54.027344 291.238281 54.21875 291.183594 54.402344 291.210938 C 58.902344 292.128906 63.359375 291.835938 67.761719 290.628906 C 73.09375 289.167969 78.011719 286.808594 82.664062 283.851562 C 92.675781 277.488281 101.203125 269.449219 108.8125 260.421875 C 110.382812 258.5625 111.785156 256.574219 113.230469 254.6875 C 113.617188 254.660156 113.910156 254.601562 114.1875 254.632812 C 116.285156 254.757812 117.992188 253.992188 119.480469 252.546875 C 120.464844 251.589844 121.535156 250.726562 122.519531 249.785156 C 123.226562 249.105469 123.921875 248.410156 124.507812 247.632812 C 125.367188 246.492188 125.574219 245.296875 125.074219 244.105469 C 125.546875 243.703125 126.035156 243.285156 126.476562 242.855469 C 126.6875 242.9375 126.921875 242.953125 127.171875 242.921875 C 127.9375 242.8125 128.671875 242.519531 129.4375 242.367188 C 130.160156 242.214844 130.796875 241.578125 131.78125 241.964844 C 131.824219 242.632812 131.90625 243.296875 131.921875 243.953125 C 132.03125 247.769531 132.128906 251.589844 132.242188 255.410156 C 132.296875 257.378906 132.699219 259.296875 133.492188 261.101562 C 133.617188 261.40625 134.046875 261.726562 134.351562 261.769531 C 134.90625 261.839844 135.242188 261.378906 135.3125 260.867188 C 135.464844 259.503906 135.699219 258.128906 135.65625 256.785156 C 135.519531 252.089844 135.28125 247.394531 135.046875 242.703125 C 134.992188 241.644531 134.796875 240.589844 134.65625 239.519531 C 136.769531 237.882812 138.824219 236.382812 140.753906 234.730469 C 142.671875 233.078125 144.433594 231.242188 146.367188 229.398438 C 149.269531 229.230469 152.296875 229.007812 155.324219 228.898438 C 162.070312 228.648438 168.820312 228.453125 175.585938 228.203125 C 176.558594 228.160156 177.515625 227.9375 178.472656 227.773438 C 178.75 227.714844 179.027344 227.578125 179.265625 227.425781 C 179.417969 227.328125 179.585938 227.105469 179.570312 226.953125 C 179.542969 226.6875 179.460938 226.328125 179.277344 226.203125 C 178.070312 225.453125 176.710938 225.34375 175.320312 225.355469 C 170.820312 225.371094 166.308594 225.410156 161.808594 225.410156 C 157.40625 225.410156 153.003906 225.410156 148.628906 226.105469 C 148.558594 226.121094 148.476562 225.996094 148.238281 225.84375 C 150.226562 221.121094 151.101562 216.328125 147.960938 211.730469 C 148.335938 210.496094 148.726562 209.386719 149.003906 208.261719 C 149.613281 205.71875 149.710938 203.09375 148.476562 200.800781 C 147.503906 199.011719 147.476562 197.332031 147.738281 195.457031 C 147.921875 194.121094 147.933594 192.761719 148.03125 191.261719 C 153.003906 190.261719 157.058594 187.261719 161.601562 184.804688 C 163.40625 190.804688 164.476562 196.761719 165.613281 202.691406 C 165.851562 203.898438 166.085938 205.136719 165.917969 206.550781 C 164.40625 206.148438 163.308594 205.34375 162.113281 204.71875 C 160.03125 203.648438 157.960938 202.523438 155.863281 201.46875 C 155.253906 201.164062 154.601562 200.914062 153.949219 200.746094 C 152.960938 200.496094 152.046875 200.898438 151.683594 201.664062 C 151.324219 202.441406 151.488281 203.386719 152.265625 204.050781 C 152.851562 204.550781 153.515625 204.984375 154.199219 205.371094 C 156.324219 206.59375 158.449219 207.800781 160.601562 208.953125 C 162.15625 209.773438 163.78125 210.46875 165.351562 211.257812 C 167.988281 212.59375 170.933594 211.480469 170.835938 207.300781 C 170.835938 207.203125 170.820312 207.105469 170.820312 207.011719 C 170.613281 205.359375 170.40625 203.703125 170.167969 202.066406 C 169.28125 195.84375 167.53125 189.832031 165.585938 183.886719 C 165.40625 183.34375 165.320312 182.789062 165.15625 182.09375 C 172.433594 176.652344 178.320312 170.070312 182.304688 162.25 C 183.597656 161.707031 184.613281 161.347656 185.570312 160.859375 C 186.527344 160.390625 187.457031 159.820312 188.375 159.265625 C 191.152344 157.542969 193.777344 155.625 196.25 153.5 C 196.765625 154.152344 197.25 154.804688 197.75 155.457031 C 197.582031 155.695312 197.472656 155.988281 197.457031 156.320312 C 197.386719 157.25 197.667969 158.082031 198.234375 158.777344 C 199.097656 159.832031 199.984375 160.890625 200.917969 161.890625 C 204.539062 165.75 208.136719 169.609375 211.816406 173.402344 C 214.414062 176.066406 217.082031 178.664062 219.804688 181.191406 C 221.59375 182.84375 223.566406 184.316406 225.457031 185.871094 C 226.273438 186.554688 227.207031 187.152344 227.484375 188.582031 C 224.234375 192.246094 221.066406 195.832031 217.886719 199.414062 C 211 207.164062 203.847656 214.703125 197.722656 223.121094 C 196.734375 224.4375 196.332031 225.757812 196.277344 227.382812 Z M 185.542969 253.867188 C 185.113281 246.257812 184.929688 238.632812 183.917969 231.0625 C 183.792969 230.105469 183.515625 229.160156 183.238281 228.230469 C 183.167969 228.007812 182.765625 227.714844 182.585938 227.757812 C 182.25 227.828125 181.863281 228.0625 181.710938 228.339844 C 181.183594 229.328125 181.238281 230.410156 181.292969 231.492188 C 181.402344 233.453125 181.527344 235.394531 181.613281 237.355469 C 181.765625 240.769531 181.890625 244.1875 182.042969 247.617188 C 182.210938 251.519531 182.113281 255.421875 182.015625 259.4375 C 178.183594 261.839844 174.640625 264.101562 171.042969 266.28125 C 169.542969 267.199219 167.945312 267.964844 166.378906 268.726562 C 164.265625 269.753906 162.128906 270.726562 159.683594 270.65625 C 159.210938 270.644531 158.710938 270.808594 158.265625 270.976562 C 157.378906 271.296875 156.574219 271.117188 155.726562 270.753906 C 153.476562 269.824219 151.183594 268.933594 148.894531 268.089844 C 145.503906 266.839844 142.085938 265.644531 138.699219 264.421875 C 137.574219 264.019531 136.40625 263.839844 135.253906 264.1875 C 134.9375 264.28125 134.546875 264.644531 134.476562 264.949219 C 134.40625 265.253906 134.589844 265.796875 134.839844 265.976562 C 135.464844 266.421875 136.15625 266.796875 136.878906 267.089844 C 139.058594 267.949219 141.242188 268.796875 143.460938 269.546875 C 146.976562 270.742188 150.476562 272.019531 154.058594 272.933594 C 158.199219 273.992188 162.351562 273.933594 166.390625 272.210938 C 171.25 270.128906 175.890625 267.628906 180.570312 265.171875 C 181.515625 264.671875 182.390625 264.019531 183.167969 263.28125 C 183.722656 262.769531 184.292969 262.074219 184.445312 261.378906 C 185 258.910156 185.679688 256.449219 185.542969 253.867188 Z M 89.34375 196.664062 C 89.371094 194.898438 89.441406 193.136719 89.453125 191.371094 C 89.453125 190.898438 89.371094 190.429688 89.328125 190.023438 C 86.578125 189.277344 83.953125 188.554688 81.230469 187.816406 C 81.105469 187.984375 80.816406 188.191406 80.800781 188.414062 C 80.550781 191.164062 79.621094 193.746094 78.84375 196.371094 C 77.691406 200.21875 76.59375 204.066406 75.496094 207.925781 C 75.34375 208.46875 75.359375 209.050781 75.246094 209.898438 C 76.300781 209.453125 77.105469 209.175781 77.855469 208.816406 C 79.886719 207.84375 81.882812 206.816406 83.914062 205.84375 C 84.441406 205.59375 84.996094 205.355469 85.566406 205.289062 C 85.882812 205.246094 86.382812 205.453125 86.550781 205.71875 C 86.578125 205.746094 86.59375 205.789062 86.605469 205.828125 C 87.523438 205.261719 88.425781 204.636719 89.257812 203.96875 C 89.285156 201.539062 89.316406 199.109375 89.34375 196.664062 Z M 89.34375 196.664062 " fill-opacity="1" fill-rule="nonzero"/><path fill="#4d4d4f" d="M 108.894531 184.957031 C 108.6875 178.066406 108.492188 171.347656 108.285156 164.417969 C 108.8125 164.304688 109.4375 164.140625 110.078125 164.027344 C 114.757812 163.222656 120.796875 163.429688 126.8125 164.609375 C 127.601562 168.417969 126.878906 172.527344 128.628906 176.359375 C 128.074219 177.847656 127.503906 179.386719 126.976562 180.816406 C 120.410156 184.609375 113.980469 186.082031 108.894531 184.957031 Z M 117.949219 174.136719 C 117.949219 174.125 117.949219 174.125 117.949219 174.109375 C 116.589844 174.109375 115.214844 174.039062 113.855469 174.125 C 112.382812 174.222656 111.507812 175.054688 111.203125 176.414062 C 110.855469 177.914062 111.367188 179.222656 112.671875 179.902344 C 113.269531 180.207031 113.953125 180.5 114.605469 180.511719 C 116.546875 180.554688 118.507812 180.566406 120.449219 180.402344 C 122.269531 180.25 123.449219 179.289062 123.769531 177.304688 C 124.089844 175.359375 123.476562 174.316406 121.464844 174.164062 C 120.296875 174.070312 119.117188 174.136719 117.949219 174.136719 Z M 117.949219 174.136719 " fill-opacity="1" fill-rule="nonzero"/></svg>